{
   "accessors" : [
      {
         "bufferView" : 0,
         "byteOffset" : 0,
         "componentType" : 5123,
         "count" : 1824,
         "max" : [ 1823 ],
         "min" : [ 0 ],
         "name" : "buffer-0-accessor-indices-buffer-0-mesh-0",
         "type" : "SCALAR"
      },
      {
         "bufferView" : 2,
         "byteOffset" : 0,
         "componentType" : 5126,
         "count" : 1824,
         "max" : [ 3376803, 825230.8125, 0 ],
         "min" : [ -33372.375, 0, -6822756.5 ],
         "name" : "buffer-0-accessor-position-buffer-0-mesh-0",
         "type" : "VEC3"
      },
      {
         "bufferView" : 2,
         "byteOffset" : 21888,
         "componentType" : 5126,
         "count" : 1824,
         "max" : [ 0.9847999811172485, 1, 1 ],
         "min" : [ -0.9847999811172485, -1, -1 ],
         "name" : "buffer-0-accessor-normal-buffer-0-mesh-0",
         "type" : "VEC3"
      },
      {
         "bufferView" : 1,
         "byteOffset" : 0,
         "componentType" : 5126,
         "count" : 1824,
         "max" : [ 1.027799963951111, 0 ],
         "min" : [ 0, -1 ],
         "name" : "buffer-0-accessor-texcoord-buffer-0-mesh-0",
         "type" : "VEC2"
      },
      {
         "bufferView" : 3,
         "byteOffset" : 0,
         "componentType" : 5126,
         "count" : 0,
         "max" : [ 0, 0, 0, 0 ],
         "min" : [ 0, 0, 0, 0 ],
         "name" : "buffer-0-accessor-color-buffer-0-mesh-0",
         "type" : "VEC4"
      },
      {
         "bufferView" : 0,
         "byteOffset" : 3648,
         "componentType" : 5123,
         "count" : 65535,
         "max" : [ 65534 ],
         "min" : [ 0 ],
         "name" : "buffer-0-accessor-indices-buffer-0-mesh-0",
         "type" : "SCALAR"
      },
      {
         "bufferView" : 2,
         "byteOffset" : 43776,
         "componentType" : 5126,
         "count" : 65535,
         "max" : [ 2635665.75, 502700.3125, 0 ],
         "min" : [ 0, 0, -6016076.5 ],
         "name" : "buffer-0-accessor-position-buffer-0-mesh-0",
         "type" : "VEC3"
      },
      {
         "bufferView" : 2,
         "byteOffset" : 830196,
         "componentType" : 5126,
         "count" : 65535,
         "max" : [ 0.9995999932289124, 0.9904999732971191, 0.9995999932289124 ],
         "min" : [ -0.9995999932289124, -0.9934999942779541, -0.9995999932289124 ],
         "name" : "buffer-0-accessor-normal-buffer-0-mesh-0",
         "type" : "VEC3"
      },
      {
         "bufferView" : 1,
         "byteOffset" : 14592,
         "componentType" : 5126,
         "count" : 65535,
         "max" : [ 1.097399950027466, 0.1136000007390976 ],
         "min" : [ -0.2935000061988831, -1.114300012588501 ],
         "name" : "buffer-0-accessor-texcoord-buffer-0-mesh-0",
         "type" : "VEC2"
      },
      {
         "bufferView" : 3,
         "byteOffset" : 0,
         "componentType" : 5126,
         "count" : 0,
         "max" : [ 0, 0, 0, 0 ],
         "min" : [ 0, 0, 0, 0 ],
         "name" : "buffer-0-accessor-color-buffer-0-mesh-0",
         "type" : "VEC4"
      },
      {
         "bufferView" : 0,
         "byteOffset" : 134718,
         "componentType" : 5123,
         "count" : 65535,
         "max" : [ 65534 ],
         "min" : [ 0 ],
         "name" : "buffer-0-accessor-indices-buffer-0-mesh-1",
         "type" : "SCALAR"
      },
      {
         "bufferView" : 2,
         "byteOffset" : 1616616,
         "componentType" : 5126,
         "count" : 65535,
         "max" : [ 2676323, 767388.5, 0 ],
         "min" : [ 0, 0, -6055762 ],
         "name" : "buffer-0-accessor-position-buffer-0-mesh-1",
         "type" : "VEC3"
      },
      {
         "bufferView" : 2,
         "byteOffset" : 2403036,
         "componentType" : 5126,
         "count" : 65535,
         "max" : [ 0.9995999932289124, 0.9904999732971191, 0.9995999932289124 ],
         "min" : [ -0.9995999932289124, -0.9934999942779541, -0.9995999932289124 ],
         "name" : "buffer-0-accessor-normal-buffer-0-mesh-1",
         "type" : "VEC3"
      },
      {
         "bufferView" : 1,
         "byteOffset" : 538872,
         "componentType" : 5126,
         "count" : 65535,
         "max" : [ 1.097399950027466, 0.1136000007390976 ],
         "min" : [ -0.2935000061988831, -1.114300012588501 ],
         "name" : "buffer-0-accessor-texcoord-buffer-0-mesh-1",
         "type" : "VEC2"
      },
      {
         "bufferView" : 3,
         "byteOffset" : 0,
         "componentType" : 5126,
         "count" : 0,
         "max" : [ 0, 0, 0, 0 ],
         "min" : [ 0, 0, 0, 0 ],
         "name" : "buffer-0-accessor-color-buffer-0-mesh-1",
         "type" : "VEC4"
      },
      {
         "bufferView" : 0,
         "byteOffset" : 265788,
         "componentType" : 5123,
         "count" : 59262,
         "max" : [ 59261 ],
         "min" : [ 0 ],
         "name" : "buffer-0-accessor-indices-buffer-0-mesh-2",
         "type" : "SCALAR"
      },
      {
         "bufferView" : 2,
         "byteOffset" : 3189456,
         "componentType" : 5126,
         "count" : 59262,
         "max" : [ 2676323, 762366.9375, 0 ],
         "min" : [ 0, 0, -6055762 ],
         "name" : "buffer-0-accessor-position-buffer-0-mesh-2",
         "type" : "VEC3"
      },
      {
         "bufferView" : 2,
         "byteOffset" : 3900600,
         "componentType" : 5126,
         "count" : 59262,
         "max" : [ 0.9977999925613403, 0.7055000066757202, 0.9977999925613403 ],
         "min" : [ -0.9977999925613403, -0.7228999733924866, -0.9977999925613403 ],
         "name" : "buffer-0-accessor-normal-buffer-0-mesh-2",
         "type" : "VEC3"
      },
      {
         "bufferView" : 1,
         "byteOffset" : 1063152,
         "componentType" : 5126,
         "count" : 59262,
         "max" : [ 0.8906000256538391, 0.01020000036805868 ],
         "min" : [ -0.1629000008106232, -1.038699984550476 ],
         "name" : "buffer-0-accessor-texcoord-buffer-0-mesh-2",
         "type" : "VEC2"
      },
      {
         "bufferView" : 3,
         "byteOffset" : 0,
         "componentType" : 5126,
         "count" : 0,
         "max" : [ 0, 0, 0, 0 ],
         "min" : [ 0, 0, 0, 0 ],
         "name" : "buffer-0-accessor-color-buffer-0-mesh-2",
         "type" : "VEC4"
      }
   ],
   "asset" : {
      "generator" : "Obj2GltfConverter",
      "version" : "2.0"
   },
   "bufferViews" : [
      {
         "buffer" : 0,
         "byteLength" : 384312,
         "byteOffset" : 0,
         "byteStride" : 0,
         "name" : "buffer-0-bufferview-ushort",
         "target" : 34963
      },
      {
         "buffer" : 0,
         "byteLength" : 1537248,
         "byteOffset" : 384312,
         "byteStride" : 8,
         "name" : "buffer-0-bufferview-vec2",
         "target" : 34962
      },
      {
         "buffer" : 0,
         "byteLength" : 4611744,
         "byteOffset" : 1921560,
         "byteStride" : 12,
         "name" : "buffer-0-bufferview-vec3",
         "target" : 34962
      },
      {
         "buffer" : 0,
         "byteLength" : 1,
         "byteOffset" : 0,
         "name" : "buffer-0-bufferview-vec4"
      }
   ],
   "buffers" : [
      {
         "byteLength" : 6533312,
         "name" : "buffer-0",
         "uri" : "Bowl of rice.bin"
      }
   ],
   "materials" : [
      {
         "alphaMode" : "OPAQUE",
         "doubleSided" : true,
         "name" : "02___Default",
         "pbrMetallicRoughness" : {
            "baseColorFactor" : [ 0.0431, 0.0431, 0.0431, 1 ],
            "metallicFactor" : 0,
            "roughnessFactor" : 0.9699476628648295
         }
      },
      {
         "alphaMode" : "OPAQUE",
         "doubleSided" : true,
         "name" : "_crayfishdiffuse",
         "pbrMetallicRoughness" : {
            "baseColorFactor" : [ 1, 1, 1, 1 ],
            "metallicFactor" : 0,
            "roughnessFactor" : 0.9124375732201923
         }
      }
   ],
   "meshes" : [
      {
         "name" : "buffer-0-mesh-0",
         "primitives" : [
            {
               "attributes" : {
                  "NORMAL" : 2,
                  "POSITION" : 1,
                  "TEXCOORD_0" : 3
               },
               "indices" : 0,
               "material" : 0,
               "mode" : 4
            },
            {
               "attributes" : {
                  "NORMAL" : 7,
                  "POSITION" : 6,
                  "TEXCOORD_0" : 8
               },
               "indices" : 5,
               "material" : 1,
               "mode" : 4
            },
            {
               "attributes" : {
                  "NORMAL" : 12,
                  "POSITION" : 11,
                  "TEXCOORD_0" : 13
               },
               "indices" : 10,
               "material" : 1,
               "mode" : 4
            },
            {
               "attributes" : {
                  "NORMAL" : 17,
                  "POSITION" : 16,
                  "TEXCOORD_0" : 18
               },
               "indices" : 15,
               "material" : 1,
               "mode" : 4
            }
         ]
      }
   ],
   "nodes" : [
      {
         "mesh" : 0,
         "name" : "node-0"
      }
   ],
   "scenes" : [
      {
         "name" : "scene-0",
         "nodes" : [ 0 ]
      }
   ]
}
