{
   "accessors" : [
      {
         "bufferView" : 0,
         "byteOffset" : 0,
         "componentType" : 5123,
         "count" : 72,
         "max" : [ 71 ],
         "min" : [ 0 ],
         "name" : "buffer-0-accessor-indices-buffer-0-mesh-0",
         "type" : "SCALAR"
      },
      {
         "bufferView" : 2,
         "byteOffset" : 0,
         "componentType" : 5126,
         "count" : 72,
         "max" : [ 0.01766500063240528, 0, 0.01766300015151501 ],
         "min" : [ -0.01766099967062473, -1.245228052139282, -0.01766300015151501 ],
         "name" : "buffer-0-accessor-position-buffer-0-mesh-0",
         "type" : "VEC3"
      },
      {
         "bufferView" : 2,
         "byteOffset" : 864,
         "componentType" : 5126,
         "count" : 72,
         "max" : [ 0.9434000253677368, 0, 0.9434000253677368 ],
         "min" : [ -0.9434000253677368, -1, -0.9434000253677368 ],
         "name" : "buffer-0-accessor-normal-buffer-0-mesh-0",
         "type" : "VEC3"
      },
      {
         "bufferView" : 1,
         "byteOffset" : 0,
         "componentType" : 5126,
         "count" : 72,
         "max" : [ 0.9107999801635742, 0 ],
         "min" : [ 0, -0.4526000022888184 ],
         "name" : "buffer-0-accessor-texcoord-buffer-0-mesh-0",
         "type" : "VEC2"
      },
      {
         "bufferView" : 3,
         "byteOffset" : 0,
         "componentType" : 5126,
         "count" : 0,
         "max" : [ 0, 0, 0, 0 ],
         "min" : [ 0, 0, 0, 0 ],
         "name" : "buffer-0-accessor-color-buffer-0-mesh-0",
         "type" : "VEC4"
      },
      {
         "bufferView" : 0,
         "byteOffset" : 144,
         "componentType" : 5123,
         "count" : 456,
         "max" : [ 455 ],
         "min" : [ 0 ],
         "name" : "buffer-0-accessor-indices-buffer-0-mesh-0",
         "type" : "SCALAR"
      },
      {
         "bufferView" : 2,
         "byteOffset" : 1728,
         "componentType" : 5126,
         "count" : 456,
         "max" : [ 0.281015008687973, 0.409494012594223, 0.281013011932373 ],
         "min" : [ -0.2810109853744507, -0.1332489997148514, -0.2810119986534119 ],
         "name" : "buffer-0-accessor-position-buffer-0-mesh-0",
         "type" : "VEC3"
      },
      {
         "bufferView" : 2,
         "byteOffset" : 7200,
         "componentType" : 5126,
         "count" : 456,
         "max" : [ 0.9434000253677368, 1, 0.9434000253677368 ],
         "min" : [ -0.9434000253677368, -1, -0.9434000253677368 ],
         "name" : "buffer-0-accessor-normal-buffer-0-mesh-0",
         "type" : "VEC3"
      },
      {
         "bufferView" : 1,
         "byteOffset" : 576,
         "componentType" : 5126,
         "count" : 456,
         "max" : [ 0.9667999744415283, 0 ],
         "min" : [ 0, -0.9369999766349792 ],
         "name" : "buffer-0-accessor-texcoord-buffer-0-mesh-0",
         "type" : "VEC2"
      },
      {
         "bufferView" : 3,
         "byteOffset" : 0,
         "componentType" : 5126,
         "count" : 0,
         "max" : [ 0, 0, 0, 0 ],
         "min" : [ 0, 0, 0, 0 ],
         "name" : "buffer-0-accessor-color-buffer-0-mesh-0",
         "type" : "VEC4"
      }
   ],
   "asset" : {
      "generator" : "Obj2GltfConverter",
      "version" : "2.0"
   },
   "bufferViews" : [
      {
         "buffer" : 0,
         "byteLength" : 1056,
         "byteOffset" : 0,
         "byteStride" : 0,
         "name" : "buffer-0-bufferview-ushort",
         "target" : 34963
      },
      {
         "buffer" : 0,
         "byteLength" : 4224,
         "byteOffset" : 1056,
         "byteStride" : 8,
         "name" : "buffer-0-bufferview-vec2",
         "target" : 34962
      },
      {
         "buffer" : 0,
         "byteLength" : 12672,
         "byteOffset" : 5280,
         "byteStride" : 12,
         "name" : "buffer-0-bufferview-vec3",
         "target" : 34962
      },
      {
         "buffer" : 0,
         "byteLength" : 1,
         "byteOffset" : 0,
         "name" : "buffer-0-bufferview-vec4"
      }
   ],
   "buffers" : [
      {
         "byteLength" : 17952,
         "name" : "buffer-0",
         "uri" : "CHAHIN_LOLLIPOP.bin"
      }
   ],
   "images" : [
      {
         "mimeType" : "image/jpeg",
         "name" : "Material.024-image",
         "uri" : "CHAHIN_LOLLIPOP_TEXTURE.jpg"
      },
      {
         "mimeType" : "image/jpeg",
         "name" : "Material.025-image",
         "uri" : "CHAHIN_LOLLIPOP_TEXTURE.jpg"
      }
   ],
   "materials" : [
      {
         "alphaMode" : "OPAQUE",
         "doubleSided" : true,
         "name" : "Material.024",
         "pbrMetallicRoughness" : {
            "baseColorFactor" : [ 0.64, 0.64, 0.64, 1 ],
            "baseColorTexture" : {
               "index" : 0,
               "texCoord" : 0
            },
            "metallicFactor" : 0,
            "roughnessFactor" : 0.7448017359246658
         }
      },
      {
         "alphaMode" : "OPAQUE",
         "doubleSided" : true,
         "name" : "Material.025",
         "pbrMetallicRoughness" : {
            "baseColorFactor" : [ 0.64, 0.64, 0.64, 1 ],
            "baseColorTexture" : {
               "index" : 1,
               "texCoord" : 0
            },
            "metallicFactor" : 0,
            "roughnessFactor" : 0.7448017359246658
         }
      }
   ],
   "meshes" : [
      {
         "name" : "buffer-0-mesh-0",
         "primitives" : [
            {
               "attributes" : {
                  "NORMAL" : 2,
                  "POSITION" : 1,
                  "TEXCOORD_0" : 3
               },
               "indices" : 0,
               "material" : 0,
               "mode" : 4
            },
            {
               "attributes" : {
                  "NORMAL" : 7,
                  "POSITION" : 6,
                  "TEXCOORD_0" : 8
               },
               "indices" : 5,
               "material" : 1,
               "mode" : 4
            }
         ]
      }
   ],
   "nodes" : [
      {
         "mesh" : 0,
         "name" : "node-0"
      }
   ],
   "samplers" : [
      {
         "name" : "Material.024-sampler",
         "wrapS" : 10497,
         "wrapT" : 10497
      },
      {
         "name" : "Material.025-sampler",
         "wrapS" : 10497,
         "wrapT" : 10497
      }
   ],
   "scenes" : [
      {
         "name" : "scene-0",
         "nodes" : [ 0 ]
      }
   ],
   "textures" : [
      {
         "name" : "Material.024-texture",
         "sampler" : 0,
         "source" : 0
      },
      {
         "name" : "Material.025-texture",
         "sampler" : 1,
         "source" : 1
      }
   ]
}
