{
   "accessors" : [
      {
         "bufferView" : 0,
         "componentType" : 5123,
         "count" : 14274,
         "max" : [ 14273 ],
         "min" : [ 0 ],
         "name" : "buffer-0-accessor-indices-buffer-0-mesh-0",
         "type" : "SCALAR"
      },
      {
         "bufferView" : 2,
         "componentType" : 5126,
         "count" : 14274,
         "max" : [ 4.680912017822266, 10.06244564056396, 18.85059928894043 ],
         "min" : [ -4.683623790740967, 0, -18.85059928894043 ],
         "name" : "buffer-0-accessor-position-buffer-0-mesh-0",
         "type" : "VEC3"
      },
      {
         "bufferView" : 2,
         "byteOffset" : 171288,
         "componentType" : 5126,
         "count" : 14274,
         "max" : [ 1, 1, 1 ],
         "min" : [ -1, -1, -1 ],
         "name" : "buffer-0-accessor-normal-buffer-0-mesh-0",
         "type" : "VEC3"
      },
      {
         "bufferView" : 1,
         "componentType" : 5126,
         "count" : 14274,
         "max" : [ 0.9991700053215027, 0 ],
         "min" : [ 0, -0.9780449867248535 ],
         "name" : "buffer-0-accessor-texcoord-buffer-0-mesh-0",
         "type" : "VEC2"
      },
      {
         "bufferView" : 3,
         "componentType" : 5126,
         "count" : 0,
         "max" : [ 0, 0, 0, 0 ],
         "min" : [ 0, 0, 0, 0 ],
         "name" : "buffer-0-accessor-color-buffer-0-mesh-0",
         "type" : "VEC4"
      }
   ],
   "asset" : {
      "generator" : "Obj2GltfConverter",
      "version" : "2.0"
   },
   "bufferViews" : [
      {
         "buffer" : 0,
         "byteLength" : 28548,
         "byteStride" : 0,
         "name" : "buffer-0-bufferview-ushort",
         "target" : 34963
      },
      {
         "buffer" : 0,
         "byteLength" : 114192,
         "byteOffset" : 28552,
         "byteStride" : 8,
         "name" : "buffer-0-bufferview-vec2",
         "target" : 34962
      },
      {
         "buffer" : 0,
         "byteLength" : 342576,
         "byteOffset" : 142752,
         "byteStride" : 12,
         "name" : "buffer-0-bufferview-vec3",
         "target" : 34962
      },
      {
         "buffer" : 0,
         "byteLength" : 1,
         "name" : "buffer-0-bufferview-vec4"
      }
   ],
   "buffers" : [
      {
         "byteLength" : 485328,
         "name" : "buffer-0",
         "uri" : "CruiseLiner.bin"
      }
   ],
   "images" : [
      {
         "mimeType" : "image/png",
         "name" : "CruiseLiner_mat1-image",
         "uri" : "CruiseLiner_BaseColor.png"
      }
   ],
   "materials" : [
      {
         "doubleSided" : true,
         "name" : "CruiseLiner_mat1",
         "pbrMetallicRoughness" : {
            "baseColorTexture" : {
               "index" : 0
            },
            "metallicFactor" : 0,
            "roughnessFactor" : 0.9699476628648295
         }
      }
   ],
   "meshes" : [
      {
         "name" : "buffer-0-mesh-0",
         "primitives" : [
            {
               "attributes" : {
                  "NORMAL" : 2,
                  "POSITION" : 1,
                  "TEXCOORD_0" : 3
               },
               "indices" : 0,
               "material" : 0
            }
         ]
      }
   ],
   "nodes" : [
      {
         "mesh" : 0,
         "name" : "node-0"
      }
   ],
   "samplers" : [
      {
         "name" : "CruiseLiner_mat1-sampler",
         "wrapS" : 10497,
         "wrapT" : 10497
      }
   ],
   "scenes" : [
      {
         "name" : "scene-0",
         "nodes" : [ 0 ]
      }
   ],
   "textures" : [
      {
         "name" : "CruiseLiner_mat1-texture",
         "sampler" : 0,
         "source" : 0
      }
   ]
}
