{
   "accessors" : [
      {
         "bufferView" : 0,
         "componentType" : 5123,
         "count" : 84,
         "max" : [ 83 ],
         "min" : [ 0 ],
         "name" : "buffer-0-accessor-indices-buffer-0-mesh-0",
         "type" : "SCALAR"
      },
      {
         "bufferView" : 2,
         "componentType" : 5126,
         "count" : 84,
         "max" : [ 0.04172400012612343, 0.00761099997907877, 0.02029900066554546 ],
         "min" : [ -0.03581399843096733, -0.00761099997907877, -0.02029900066554546 ],
         "name" : "buffer-0-accessor-position-buffer-0-mesh-0",
         "type" : "VEC3"
      },
      {
         "bufferView" : 2,
         "byteOffset" : 1008,
         "componentType" : 5126,
         "count" : 84,
         "max" : [ 0.8036999702453613, 0.707099974155426, 1 ],
         "min" : [ -1, -1, -1 ],
         "name" : "buffer-0-accessor-normal-buffer-0-mesh-0",
         "type" : "VEC3"
      },
      {
         "bufferView" : 1,
         "componentType" : 5126,
         "count" : 84,
         "max" : [ 0.9578999876976013, 0 ],
         "min" : [ 0, -0.9944999814033508 ],
         "name" : "buffer-0-accessor-texcoord-buffer-0-mesh-0",
         "type" : "VEC2"
      },
      {
         "bufferView" : 3,
         "componentType" : 5126,
         "count" : 0,
         "max" : [ 0, 0, 0, 0 ],
         "min" : [ 0, 0, 0, 0 ],
         "name" : "buffer-0-accessor-color-buffer-0-mesh-0",
         "type" : "VEC4"
      }
   ],
   "asset" : {
      "generator" : "Obj2GltfConverter",
      "version" : "2.0"
   },
   "bufferViews" : [
      {
         "buffer" : 0,
         "byteLength" : 168,
         "byteStride" : 0,
         "name" : "buffer-0-bufferview-ushort",
         "target" : 34963
      },
      {
         "buffer" : 0,
         "byteLength" : 672,
         "byteOffset" : 168,
         "byteStride" : 8,
         "name" : "buffer-0-bufferview-vec2",
         "target" : 34962
      },
      {
         "buffer" : 0,
         "byteLength" : 2016,
         "byteOffset" : 840,
         "byteStride" : 12,
         "name" : "buffer-0-bufferview-vec3",
         "target" : 34962
      },
      {
         "buffer" : 0,
         "byteLength" : 1,
         "name" : "buffer-0-bufferview-vec4"
      }
   ],
   "buffers" : [
      {
         "byteLength" : 2864,
         "name" : "buffer-0",
         "uri" : "Eraser.bin"
      }
   ],
   "images" : [
      {
         "mimeType" : "image/png",
         "name" : "phong1SG-image",
         "uri" : "DefaultMaterial_Base_Color.png"
      }
   ],
   "materials" : [
      {
         "doubleSided" : true,
         "name" : "phong1SG",
         "pbrMetallicRoughness" : {
            "baseColorTexture" : {
               "index" : 0
            },
            "metallicFactor" : 0
         }
      }
   ],
   "meshes" : [
      {
         "name" : "buffer-0-mesh-0",
         "primitives" : [
            {
               "attributes" : {
                  "NORMAL" : 2,
                  "POSITION" : 1,
                  "TEXCOORD_0" : 3
               },
               "indices" : 0,
               "material" : 0
            }
         ]
      }
   ],
   "nodes" : [
      {
         "mesh" : 0,
         "name" : "node-0"
      }
   ],
   "samplers" : [
      {
         "name" : "phong1SG-sampler",
         "wrapS" : 10497,
         "wrapT" : 10497
      }
   ],
   "scenes" : [
      {
         "name" : "scene-0",
         "nodes" : [ 0 ]
      }
   ],
   "textures" : [
      {
         "name" : "phong1SG-texture",
         "sampler" : 0,
         "source" : 0
      }
   ]
}
