{
    "asset": {
        "version": "2.0",
        "generator": "https://3dviewer.net"
    },
    "scene": 0,
    "scenes": [
        {
            "nodes": [
                0
            ]
        }
    ],
    "nodes": [
        {
            "mesh": 0
        }
    ],
    "materials": [
        {
            "name": "49",
            "pbrMetallicRoughness": {
                "baseColorFactor": [
                    1,
                    1,
                    1,
                    1
                ],
                "metallicFactor": 0,
                "roughnessFactor": 1,
                "baseColorTexture": {
                    "index": 0
                }
            },
            "emissiveFactor": [
                0,
                0,
                0
            ],
            "doubleSided": true,
            "alphaMode": "BLEND"
        }
    ],
    "meshes": [
        {
            "name": "mesh_id31",
            "primitives": [
                {
                    "attributes": {
                        "POSITION": 1,
                        "NORMAL": 2,
                        "TEXCOORD_0": 3
                    },
                    "indices": 0,
                    "mode": 4,
                    "material": 0
                }
            ]
        }
    ],
    "buffers": [
        {
            "uri": "model.bin",
            "byteLength": 563968
        }
    ],
    "bufferViews": [
        {
            "buffer": 0,
            "byteOffset": 0,
            "byteLength": 237600
        },
        {
            "buffer": 0,
            "byteOffset": 237600,
            "byteLength": 122388
        },
        {
            "buffer": 0,
            "byteOffset": 359988,
            "byteLength": 122388
        },
        {
            "buffer": 0,
            "byteOffset": 482376,
            "byteLength": 81592
        }
    ],
    "accessors": [
        {
            "bufferView": 0,
            "byteOffset": 0,
            "componentType": 5125,
            "count": 59400,
            "type": "SCALAR"
        },
        {
            "bufferView": 1,
            "byteOffset": 0,
            "componentType": 5126,
            "count": 10199,
            "min": [
                -0.1403430071986449,
                -0.15352183859795332,
                0.22164437764426914
            ],
            "max": [
                0.15001280605793,
                0.13683403003960848,
                0.5120001632103506
            ],
            "type": "VEC3"
        },
        {
            "bufferView": 2,
            "byteOffset": 0,
            "componentType": 5126,
            "count": 10199,
            "type": "VEC3"
        },
        {
            "bufferView": 3,
            "byteOffset": 0,
            "componentType": 5126,
            "count": 10199,
            "type": "VEC2"
        }
    ],
    "images": [
        {
            "uri": "Binary_0.png"
        }
    ],
    "textures": [
        {
            "source": 0
        }
    ]
}