{
   "accessors" : [
      {
         "bufferView" : 0,
         "componentType" : 5123,
         "count" : 7038,
         "max" : [ 7037 ],
         "min" : [ 0 ],
         "name" : "buffer-0-accessor-indices-buffer-0-mesh-0",
         "type" : "SCALAR"
      },
      {
         "bufferView" : 2,
         "componentType" : 5126,
         "count" : 7038,
         "max" : [ 1210.87548828125, 332.7999877929688, 1271.200073242188 ],
         "min" : [ -1196.83251953125, -487.2296142578125, -1254 ],
         "name" : "buffer-0-accessor-position-buffer-0-mesh-0",
         "type" : "VEC3"
      },
      {
         "bufferView" : 2,
         "byteOffset" : 84456,
         "componentType" : 5126,
         "count" : 7038,
         "max" : [ 1, 1, 1 ],
         "min" : [ -1, -1, -1 ],
         "name" : "buffer-0-accessor-normal-buffer-0-mesh-0",
         "type" : "VEC3"
      },
      {
         "bufferView" : 1,
         "componentType" : 5126,
         "count" : 7038,
         "max" : [ 0.9763320088386536, 0 ],
         "min" : [ 0, -0.9692919850349426 ],
         "name" : "buffer-0-accessor-texcoord-buffer-0-mesh-0",
         "type" : "VEC2"
      },
      {
         "bufferView" : 3,
         "componentType" : 5126,
         "count" : 0,
         "max" : [ 0, 0, 0, 0 ],
         "min" : [ 0, 0, 0, 0 ],
         "name" : "buffer-0-accessor-color-buffer-0-mesh-0",
         "type" : "VEC4"
      },
      {
         "bufferView" : 0,
         "byteOffset" : 14076,
         "componentType" : 5123,
         "count" : 4476,
         "max" : [ 4475 ],
         "min" : [ 0 ],
         "name" : "buffer-0-accessor-indices-buffer-0-mesh-0",
         "type" : "SCALAR"
      },
      {
         "bufferView" : 2,
         "byteOffset" : 168912,
         "componentType" : 5126,
         "count" : 4476,
         "max" : [ 789.4800415039062, 404.4176940917969, 170 ],
         "min" : [ -789.4800415039062, -273.1088256835938, -155 ],
         "name" : "buffer-0-accessor-position-buffer-0-mesh-0",
         "type" : "VEC3"
      },
      {
         "bufferView" : 2,
         "byteOffset" : 222624,
         "componentType" : 5126,
         "count" : 4476,
         "max" : [ 1, 1, 1 ],
         "min" : [ -1, -1, -1 ],
         "name" : "buffer-0-accessor-normal-buffer-0-mesh-0",
         "type" : "VEC3"
      },
      {
         "bufferView" : 1,
         "byteOffset" : 56304,
         "componentType" : 5126,
         "count" : 4476,
         "max" : [ 0.6398800015449524, 0 ],
         "min" : [ 0, -0.6608279943466187 ],
         "name" : "buffer-0-accessor-texcoord-buffer-0-mesh-0",
         "type" : "VEC2"
      },
      {
         "bufferView" : 3,
         "componentType" : 5126,
         "count" : 0,
         "max" : [ 0, 0, 0, 0 ],
         "min" : [ 0, 0, 0, 0 ],
         "name" : "buffer-0-accessor-color-buffer-0-mesh-0",
         "type" : "VEC4"
      }
   ],
   "asset" : {
      "generator" : "Obj2GltfConverter",
      "version" : "2.0"
   },
   "bufferViews" : [
      {
         "buffer" : 0,
         "byteLength" : 23028,
         "byteStride" : 0,
         "name" : "buffer-0-bufferview-ushort",
         "target" : 34963
      },
      {
         "buffer" : 0,
         "byteLength" : 92112,
         "byteOffset" : 23032,
         "byteStride" : 8,
         "name" : "buffer-0-bufferview-vec2",
         "target" : 34962
      },
      {
         "buffer" : 0,
         "byteLength" : 276336,
         "byteOffset" : 115152,
         "byteStride" : 12,
         "name" : "buffer-0-bufferview-vec3",
         "target" : 34962
      },
      {
         "buffer" : 0,
         "byteLength" : 1,
         "name" : "buffer-0-bufferview-vec4"
      }
   ],
   "buffers" : [
      {
         "byteLength" : 391488,
         "name" : "buffer-0",
         "uri" : "Wood Bridge and Environment .bin"
      }
   ],
   "images" : [
      {
         "mimeType" : "image/png",
         "name" : "Environment:lambert5SG-image",
         "uri" : "Environment tex.png"
      },
      {
         "mimeType" : "image/png",
         "name" : "lambert3SG-image",
         "uri" : "Wood Bridge 1 tex.png"
      }
   ],
   "materials" : [
      {
         "doubleSided" : true,
         "name" : "Environment:lambert5SG",
         "pbrMetallicRoughness" : {
            "baseColorTexture" : {
               "index" : 0
            },
            "metallicFactor" : 0,
            "roughnessFactor" : 0.9699476628648295
         }
      },
      {
         "doubleSided" : true,
         "name" : "lambert3SG",
         "pbrMetallicRoughness" : {
            "baseColorTexture" : {
               "index" : 1
            },
            "metallicFactor" : 0,
            "roughnessFactor" : 0.9699476628648295
         }
      }
   ],
   "meshes" : [
      {
         "name" : "buffer-0-mesh-0",
         "primitives" : [
            {
               "attributes" : {
                  "NORMAL" : 2,
                  "POSITION" : 1,
                  "TEXCOORD_0" : 3
               },
               "indices" : 0,
               "material" : 0
            },
            {
               "attributes" : {
                  "NORMAL" : 7,
                  "POSITION" : 6,
                  "TEXCOORD_0" : 8
               },
               "indices" : 5,
               "material" : 1
            }
         ]
      }
   ],
   "nodes" : [
      {
         "mesh" : 0,
         "name" : "node-0"
      }
   ],
   "samplers" : [
      {
         "name" : "Environment:lambert5SG-sampler",
         "wrapS" : 10497,
         "wrapT" : 10497
      },
      {
         "name" : "lambert3SG-sampler",
         "wrapS" : 10497,
         "wrapT" : 10497
      }
   ],
   "scenes" : [
      {
         "name" : "scene-0",
         "nodes" : [ 0 ]
      }
   ],
   "textures" : [
      {
         "name" : "Environment:lambert5SG-texture",
         "sampler" : 0,
         "source" : 0
      },
      {
         "name" : "lambert3SG-texture",
         "sampler" : 1,
         "source" : 1
      }
   ]
}
